# xmcd
#
# Track frame offsets: 
#        150
#        18194
#        35247
#        47398
#        62668
#        76893
#        89102
#        106744
#        118183
#        135341
#        151315
#        171168
#        187344
#        188157
#        204964
#        217810
#        227798
#        230512
#        243919
#        251064
#        264093
#        273564
#        281543
#        290629
#        303096
#        318219
#
# Disc length: 4296 seconds
#
# Revision: 1
# Processed by: cddbd v1.5.2PL0 Copyright (c) Steve Scherf et al.
# Submitted via: ExactAudioCopyFreeDBPlugin 1.0
#
DISCID=6910c61a
DTITLE=Arthur Alexander - Lonely Just Like Me:  The Final Chapter
DYEAR=2007
DGENRE=Soul
TTITLE0=If It's Really Got to Be This Way
TTITLE1=Go Home Girl
TTITLE2=Sally Sue Brown
TTITLE3=All the Time
TTITLE4=Lonely Just Like Me
TTITLE5=Every Day I Have to Cry
TTITLE6=In the Middle of it All
TTITLE7=Genie in the Jug
TTITLE8=Mr. John
TTITLE9=Johnny Heartbreak
TTITLE10=There is a Road
TTITLE11=I Believe in Miracles
TTITLE12=Introduction (live on NPR's "Fresh Air", 1993)
TTITLE13=Go Home Girl (live on NPR's "Fresh Air", 1993)
TTITLE14=Interview:  "You Kinda Want to Get Paid" (live on NPR's "Fres
TTITLE14=h Air", 1993)
TTITLE15=Genie in the Jug (live on NPR's "Fresh Air", 1993)
TTITLE16=Interview:  "I Think That's How They Heard Me" (live on NPR's
TTITLE16="Fresh Air", 1993)
TTITLE17=You Better Move On (live on NPR's "Fresh Air", 1993)
TTITLE18=Interview:  "I Started in the Church" (live on NPR's "Fresh A
TTITLE18=ir", 1993)
TTITLE19=Every Day I Have to Cry (live on NPR's "Fresh Air", 1993)
TTITLE20=Solitary Man (Cleveland hotel demo, December 1991)
TTITLE21=Johnny Heartbreak (Cleveland hotel demo, December 1991)
TTITLE22=Genie in the Jug (Cleveland hotel demo, December 1991)
TTITLE23=Lonely Just Like Me (Cleveland hotel demo, December 1991)
TTITLE24=Anna (live at The Bottom Line, NYC, September 5, 1991)
TTITLE25=Glory Road (fragment) (Neil Diamond, composer) (Cleveland hot
TTITLE25=el demo, December 1991)
EXTD=#01-12 original album on Elektra Nonesuch from 1993, resequenced\r
EXTD=\n#13-20 live on 'Fresh Air', 1993\r\n#21-24 the hotel demos\r\n#
EXTD=25 live at the 'Bottom Line', 1991
EXTT0=
EXTT1=
EXTT2=
EXTT3=
EXTT4=
EXTT5=
EXTT6=
EXTT7=
EXTT8=
EXTT9=
EXTT10=
EXTT11=
EXTT12=
EXTT13=
EXTT14=
EXTT15=
EXTT16=
EXTT17=
EXTT18=
EXTT19=
EXTT20=
EXTT21=
EXTT22=
EXTT23=
EXTT24=
EXTT25=
PLAYORDER=
